<?xml version="1.0" encoding="UTF-8" standalone="no"?>
<!-- Svg Vector Icons : http://www.onlinewebfonts.com/icon -->

<svg
   xmlns:dc="http://purl.org/dc/elements/1.1/"
   xmlns:cc="http://creativecommons.org/ns#"
   xmlns:rdf="http://www.w3.org/1999/02/22-rdf-syntax-ns#"
   xmlns:svg="http://www.w3.org/2000/svg"
   xmlns="http://www.w3.org/2000/svg"
   xmlns:sodipodi="http://sodipodi.sourceforge.net/DTD/sodipodi-0.dtd"
   xmlns:inkscape="http://www.inkscape.org/namespaces/inkscape"
   version="1.1"
   x="0px"
   y="0px"
   viewBox="0 0 1000 1000"
   enable-background="new 0 0 1000 1000"
   xml:space="preserve"
   id="svg14"
   sodipodi:docname="e781ffa83cc7959f4d025c1e24e786e7.svg"
   inkscape:version="0.92.5 (2060ec1f9f, 2020-04-08)"><defs
   id="defs18" /><sodipodi:namedview
   pagecolor="#ffffff"
   bordercolor="#666666"
   borderopacity="1"
   objecttolerance="10"
   gridtolerance="10"
   guidetolerance="10"
   inkscape:pageopacity="0"
   inkscape:pageshadow="2"
   inkscape:window-width="1920"
   inkscape:window-height="966"
   id="namedview16"
   showgrid="false"
   inkscape:zoom="0.236"
   inkscape:cx="-269.0678"
   inkscape:cy="500"
   inkscape:window-x="1366"
   inkscape:window-y="27"
   inkscape:window-maximized="1"
   inkscape:current-layer="g12" />
<metadata
   id="metadata2"> Svg Vector Icons : http://www.onlinewebfonts.com/icon <rdf:RDF><cc:Work
     rdf:about=""><dc:format>image/svg+xml</dc:format><dc:type
       rdf:resource="http://purl.org/dc/dcmitype/StillImage" /></cc:Work></rdf:RDF></metadata>
<g
   id="g12"><g
     transform="translate(0.000000,511.000000) scale(0.100000,-0.100000)"
     id="g10"
     style="fill:#edf5e1;fill-opacity:1"><path
       d="M3799.5,3871.3c-73.5-4.9-328.3-19.6-563.5-34.3c-837.9-51.4-1768.9-176.4-2241.8-306.3c-465.5-124.9-749.7-281.7-847.7-463c-51.5-98-53.9-117.6-27-205.8c164.2-543.9,2009-872.2,4880.4-872.2c2876.3,0,4716.2,328.3,4880.4,872.2c26.9,88.2,24.5,107.8-27,205.8c-200.9,377.3-1185.8,629.6-3028.2,771.7C6501.8,3863.9,4091,3890.8,3799.5,3871.3z"
       id="path4"
       style="fill:#edf5e1;fill-opacity:1" /><path
       d="M100,2195.4c0-357.7,19.6-421.4,151.9-521.8c421.4-316.1,1496.9-541.4,3265.8-683.6c521.8-41.6,2440.2-41.6,2976.8,0c1670.9,129.9,2704.8,343,3202.2,656.6c183.8,117.6,203.3,166.6,203.3,546.3v320.9l-134.7-85.8c-460.6-296.4-1283.8-465.5-2878.7-592.9c-668.8-53.9-2908.2-61.3-3589.3-12.3c-1173.5,83.3-2009,203.4-2496.5,362.6c-247.5,78.4-490,188.6-592.9,267c-44.1,34.3-85.8,61.3-93.1,61.3C107.3,2513.9,100,2369.4,100,2195.4z"
       id="path6"
       style="fill:#edf5e1;fill-opacity:1" /><path
       d="M4216,745c2.5-4.9,132.3-502.2,291.5-1107.4l286.7-1100.1l-193.5-470.4l-196-470.4l-1019.2-213.1c-561-117.6-1038.8-220.5-1060.9-225.4c-36.7-12.2-44.1-44.1-44.1-218.1v-203.3l166.6-61.3c394.5-147,1041.3-262.1,1756.7-313.6c717.8-51.5,1832.6,0,2462.2,112.7c298.9,56.3,737.4,174,894.3,245l134.7,58.8v181.3v183.7l-115.2,27c-66.2,14.7-536.5,115.1-1046.2,222.9c-512,107.8-933.4,200.9-938.3,205.8c-4.9,4.9-95.5,215.6-203.3,470.4l-193.6,460.6l281.8,1080.4c154.4,592.9,286.7,1092.7,291.6,1109.8c7.4,22.1-156.8,29.4-771.7,29.4C4568.8,749.9,4216,747.5,4216,745z"
       id="path8"
       style="fill:#edf5e1;fill-opacity:1" /></g></g>
</svg>