<?xml version="1.0" encoding="UTF-8" standalone="no"?>
<!-- Svg Vector Icons : http://www.onlinewebfonts.com/icon -->

<svg
   xmlns:dc="http://purl.org/dc/elements/1.1/"
   xmlns:cc="http://creativecommons.org/ns#"
   xmlns:rdf="http://www.w3.org/1999/02/22-rdf-syntax-ns#"
   xmlns:svg="http://www.w3.org/2000/svg"
   xmlns="http://www.w3.org/2000/svg"
   xmlns:sodipodi="http://sodipodi.sourceforge.net/DTD/sodipodi-0.dtd"
   xmlns:inkscape="http://www.inkscape.org/namespaces/inkscape"
   version="1.1"
   x="0px"
   y="0px"
   viewBox="0 0 1000 1000"
   enable-background="new 0 0 1000 1000"
   xml:space="preserve"
   id="svg10"
   sodipodi:docname="table-green.svg"
   inkscape:version="0.92.5 (2060ec1f9f, 2020-04-08)"><defs
   id="defs14" /><sodipodi:namedview
   pagecolor="#ffffff"
   bordercolor="#666666"
   borderopacity="1"
   objecttolerance="10"
   gridtolerance="10"
   guidetolerance="10"
   inkscape:pageopacity="0"
   inkscape:pageshadow="2"
   inkscape:window-width="1920"
   inkscape:window-height="966"
   id="namedview12"
   showgrid="false"
   inkscape:zoom="0.6675088"
   inkscape:cx="479.91439"
   inkscape:cy="555.58644"
   inkscape:window-x="1366"
   inkscape:window-y="27"
   inkscape:window-maximized="1"
   inkscape:current-layer="g6" />
<metadata
   id="metadata2"> Svg Vector Icons : http://www.onlinewebfonts.com/icon <rdf:RDF><cc:Work
     rdf:about=""><dc:format>image/svg+xml</dc:format><dc:type
       rdf:resource="http://purl.org/dc/dcmitype/StillImage" /></cc:Work></rdf:RDF></metadata>
<g
   id="g8"><g
     transform="translate(0.000000,511.000000) scale(0.100000,-0.100000)"
     id="g6"><path
       d="M3948,3906.5c-1766.1-106.5-3182.7-441-3651.4-864.9c-257.8-234.3-262-436.7-12.8-666.8c515.5-470.8,2051.5-803.1,4096.6-888.4l345.1-14.9V-703.6v-2177.2l-387.7-25.5c-675.3-44.8-1167.4-134.2-1391.1-255.6c-95.9-53.3-106.5-63.9-106.5-132.1c0-68.2,10.6-78.8,106.5-132.1c487.8-264.2,2207-357.9,3397.9-187.5c594.4,87.3,884.1,217.3,824.4,372.8c-19.2,44.7-200.3,132.1-383.5,181.1c-230.1,63.9-671.1,123.6-1116.3,153.4l-389.9,25.5v2179.3v2179.3h102.3c206.7,0,943.7,42.6,1293.1,74.6c1476.3,136.3,2633.1,447.4,3040,818c149.1,136.3,196,230.1,183.2,366.4c-12.8,132.1-80.9,232.2-238.6,351.5c-487.8,368.5-1625.4,651.9-3165.7,788.2C6048.5,3915,4425.2,3934.1,3948,3906.5z"
       id="path4"
       style="fill:#008080" /></g></g>
</svg>